<?xml version="1.0" encoding="UTF-8"?>
<svg version="1.1" xmlns="http://www.w3.org/2000/svg" width="1409" height="316">
<path d="M0 0 C464.97 0 929.94 0 1409 0 C1409 104.28 1409 208.56 1409 316 C944.03 316 479.06 316 0 316 C0 211.72 0 107.44 0 0 Z " fill="#FEFEFE" transform="translate(0,0)"/>
<path d="M0 0 C1.7634375 0.86625 1.7634375 0.86625 3.5625 1.75 C4.366875 2.1625 5.17125 2.575 6 3 C5.37785592 7.83575629 3.33664872 11.66878015 1.125 15.9375 C0.59712891 16.97293945 0.59712891 16.97293945 0.05859375 18.02929688 C-0.63148778 19.38252367 -1.323802 20.73461467 -2.01855469 22.08544922 C-3.36581924 24.71362051 -4.68419191 27.35597054 -6 30 C-6.69996094 29.84144531 -7.39992188 29.68289062 -8.12109375 29.51953125 C-11.13970894 28.97478794 -13.99658452 28.76114399 -17.0625 28.6875 C-18.08472656 28.65011719 -19.10695312 28.61273438 -20.16015625 28.57421875 C-23.0452296 28.81202414 -23.0452296 28.81202414 -25.30859375 30.45703125 C-27.76217562 34.14590376 -27.81968949 37.69574112 -28 42 C-28.0530127 43.13711426 -28.10602539 44.27422852 -28.16064453 45.44580078 C-28.32032125 49.3175858 -28.44605239 53.18918533 -28.5625 57.0625 C-28.60579628 58.41863016 -28.64941366 59.77475011 -28.69335938 61.13085938 C-28.79872068 64.42047361 -28.89979298 67.71022473 -29 71 C-20.75 71 -12.5 71 -4 71 C-3.67 78.26 -3.34 85.52 -3 93 C0.465 89.04 0.465 89.04 4 85 C17.18082231 72.14869824 34.21564429 67.11519223 52.25 66.6875 C72.8789256 67.36201528 90.23806216 74.22621113 104.55078125 89.171875 C110.53276611 96.0793025 113.85515168 103.15720428 116 112 C116.4125 110.845 116.825 109.69 117.25 108.5 C123.3950481 92.35862941 133.74815618 81.43811828 149.125 73.625 C149.78177734 73.29097168 150.43855469 72.95694336 151.11523438 72.61279297 C158.77018131 68.89811717 166.54917508 67.53133929 175 67 C175.81984375 66.94585937 176.6396875 66.89171875 177.484375 66.8359375 C196.86556391 66.18989787 214.39594354 72.22480472 228.625 85.4375 C229.800625 86.7059375 229.800625 86.7059375 231 88 C231.55429687 88.56074219 232.10859375 89.12148437 232.6796875 89.69921875 C242.55231256 100.14386286 245.39170211 112.58115475 245.125 126.5625 C245.11597656 127.47580078 245.10695313 128.38910156 245.09765625 129.33007812 C245.07437253 131.55367319 245.0416771 133.77668677 245 136 C244.34 136 243.68 136 243 136 C242.938125 137.60875 242.938125 137.60875 242.875 139.25 C241.38939466 150.74817833 233.77956688 160.42666795 224.94921875 167.4140625 C218.72963037 172.0000834 212.42286058 175.71871524 205 178 C204.10152344 178.28488281 203.20304687 178.56976563 202.27734375 178.86328125 C182.48644977 184.4835755 162.47603239 182.5234225 144.1875 173.25 C129.83743668 164.92183825 122.18708089 152.84899413 116 138 C115.72027344 138.83402344 115.44054687 139.66804687 115.15234375 140.52734375 C111.576674 150.56451318 106.81572029 157.77045873 99 165 C98.52433594 165.46921875 98.04867187 165.9384375 97.55859375 166.421875 C82.98172618 180.05036806 63.5651974 181.9581897 44.57421875 181.44921875 C25.92414644 180.49438212 11.62111421 172.40633277 -1.0078125 158.84375 C-12.02057207 145.68564766 -13.37782875 129.50384676 -12 113 C-10.90488423 108.02717882 -9.27198343 103.54396685 -7 99 C-14.26 99 -21.52 99 -29 99 C-29 125.07 -29 151.14 -29 178 C-41.54 178 -54.08 178 -67 178 C-67 151.93 -67 125.86 -67 99 C-71.95 99 -76.9 99 -82 99 C-82 89.76 -82 80.52 -82 71 C-77.05 71 -72.1 71 -67 71 C-67.02320312 69.32035156 -67.04640625 67.64070313 -67.0703125 65.91015625 C-67.51166425 21.15775215 -67.51166425 21.15775215 -52.12109375 5.03125 C-37.25535902 -8.69991789 -17.52829688 -8.86605714 0 0 Z " fill="#7E7878" transform="translate(154,62)"/>
<path d="M0 0 C1.7634375 0.86625 1.7634375 0.86625 3.5625 1.75 C4.366875 2.1625 5.17125 2.575 6 3 C5.37785592 7.83575629 3.33664872 11.66878015 1.125 15.9375 C0.59712891 16.97293945 0.59712891 16.97293945 0.05859375 18.02929688 C-0.63148778 19.38252367 -1.323802 20.73461467 -2.01855469 22.08544922 C-3.36581924 24.71362051 -4.68419191 27.35597054 -6 30 C-6.69996094 29.84144531 -7.39992188 29.68289062 -8.12109375 29.51953125 C-11.13970894 28.97478794 -13.99658452 28.76114399 -17.0625 28.6875 C-18.08472656 28.65011719 -19.10695313 28.61273438 -20.16015625 28.57421875 C-23.05056739 28.79883852 -23.05056739 28.79883852 -25.24609375 30.51953125 C-30.47383829 37.91288934 -29.23488197 47.37003942 -29.125 56 C-29.11494978 57.36067049 -29.10582754 58.72134817 -29.09765625 60.08203125 C-29.07420897 63.38809794 -29.03834194 66.6940725 -29 70 C-20.75 70.33 -12.5 70.66 -4 71 C-3.67 78.26 -3.34 85.52 -3 93 C0.465 89.04 0.465 89.04 4 85 C10.01939106 79.37256929 16.46400622 75.27978467 24 72 C24.63164063 71.70351562 25.26328125 71.40703125 25.9140625 71.1015625 C41.70332199 64.31554033 62.81450894 65.47021412 78.6875 71.1875 C93.0215308 77.18173106 106.59898898 87.41308065 113 102 C115.90278307 109.53529471 116.46257096 116.47266174 116.375 124.5 C116.38660156 125.56347656 116.39820313 126.62695312 116.41015625 127.72265625 C116.37587144 137.03669737 114.82969365 144.98796065 109.5625 152.8125 C108.69818359 154.12154297 108.69818359 154.12154297 107.81640625 155.45703125 C97.90939386 169.3268486 83.3573109 177.85325531 66.54248047 180.68652344 C46.83190379 183.1167501 27.54958603 181.78460691 11 170 C-0.38901661 161.0491493 -9.92698782 149.82517803 -12 135 C-12.81352414 122.39037591 -12.76528077 110.53056154 -7 99 C-14.26 99 -21.52 99 -29 99 C-29 125.07 -29 151.14 -29 178 C-41.54 178 -54.08 178 -67 178 C-67 151.93 -67 125.86 -67 99 C-71.95 99 -76.9 99 -82 99 C-82 89.76 -82 80.52 -82 71 C-77.05 71 -72.1 71 -67 71 C-67.02320313 69.32035156 -67.04640625 67.64070313 -67.0703125 65.91015625 C-67.51166425 21.15775215 -67.51166425 21.15775215 -52.12109375 5.03125 C-37.25535902 -8.69991789 -17.52829688 -8.86605714 0 0 Z " fill="#7E7878" transform="translate(598,62)"/>
<path d="M0 0 C2.58330229 0.15322359 5.14492239 0.25706889 7.73046875 0.31640625 C8.85609978 0.3475779 8.85609978 0.3475779 10.00447083 0.37937927 C12.39872184 0.44469926 14.79308139 0.50367792 17.1875 0.5625 C18.81186013 0.60570193 20.43620933 0.64931676 22.06054688 0.69335938 C26.04025371 0.80036263 30.02006958 0.90167937 34 1 C40.04591607 12.5772861 45.30974958 24.43078275 50.43041992 36.43798828 C53.73194068 44.19180123 53.73194068 44.19180123 57.390625 51.78125 C59 55 59 55 59 57 C59.66 57 60.32 57 61 57 C61.35578125 55.82566406 61.7115625 54.65132812 62.078125 53.44140625 C64.43289554 46.38398799 67.65098251 39.6900037 70.75 32.9375 C71.69787844 30.858914 72.6440729 28.77956756 73.59005737 26.70011902 C74.20850256 25.34070229 74.82741362 23.98149739 75.44680786 22.62251282 C78.7134484 15.45006772 81.86844795 8.23239401 85 1 C93.91 1 102.82 1 112 1 C116.49889064 10.50901884 120.84815634 20.07645993 125.125 29.6875 C125.62741211 30.81454346 126.12982422 31.94158691 126.64746094 33.1027832 C136 54.17366633 136 54.17366633 136 57 C139.45656764 54.22933262 140.83456022 50.34898302 142.546875 46.39453125 C142.88116516 45.63766525 143.21545532 44.88079926 143.55987549 44.10099792 C144.62982226 41.67432816 145.69002521 39.24353963 146.75 36.8125 C147.44727994 35.22693338 148.14519077 33.64164404 148.84375 32.05664062 C151.59374318 25.8088901 154.3279492 19.55440361 157.04101562 13.29052734 C157.36338196 12.54824387 157.68574829 11.80596039 158.0178833 11.04118347 C158.62832183 9.63494989 159.23677195 8.227851 159.84295654 6.81977844 C161.88795776 2.11204224 161.88795776 2.11204224 163 1 C164.35094982 0.90731001 165.70667091 0.88252674 167.06079102 0.88647461 C167.92160782 0.88655014 168.78242462 0.88662567 169.66932678 0.88670349 C170.60473801 0.89186478 171.54014923 0.89702606 172.50390625 0.90234375 C173.45692123 0.9037587 174.40993622 0.90517365 175.39183044 0.90663147 C178.44875165 0.91224848 181.50560077 0.92480384 184.5625 0.9375 C186.62955624 0.94251281 188.69661362 0.94707609 190.76367188 0.95117188 C195.84247588 0.96222344 200.9212257 0.97949945 206 1 C201.35835333 10.37686893 196.64354799 19.69242631 191.625 28.875 C191.07118652 29.89384277 190.51737305 30.91268555 189.94677734 31.96240234 C186.14496387 38.94351653 182.27950827 45.88762653 178.39379883 52.82226562 C175.29167743 58.39217214 172.44992955 64.05762016 169.640625 69.78125 C168.05561086 72.89089678 166.35075893 75.87845802 164.5625 78.875 C161.37377754 84.22544647 158.56873797 89.71183737 155.84008789 95.30615234 C155.5280542 95.94375488 155.21602051 96.58135742 154.89453125 97.23828125 C154.49004761 98.074198 154.49004761 98.074198 154.07739258 98.92700195 C152.47914737 102.00216625 150.71946491 104.99093642 149 108 C140.42 108 131.84 108 123 108 C122.18917969 106.185 121.37835937 104.37 120.54296875 102.5 C113.44460873 86.62807131 106.27907164 70.79012228 99 55 C96.69591894 57.86682132 95.13676146 60.64024027 93.6875 64.015625 C93.04131714 65.50557983 93.04131714 65.50557983 92.38208008 67.02563477 C91.69795044 68.62169556 91.69795044 68.62169556 91 70.25 C85.50485294 82.91597361 79.78108096 95.46181142 74 108 C65.42 108 56.84 108 48 108 C46.2675 104.65875 44.535 101.3175 42.75 97.875 C38.70449428 90.10099125 34.59622524 82.36746824 30.375 74.6875 C24.19731839 63.44742011 18.20995256 52.10851735 12.22998047 40.76245117 C8.55836417 33.80059811 4.87928404 26.84937956 1 20 C-1.5864584 22.5864584 -2.62271883 25.2938548 -4.125 28.625 C-4.66382813 29.81351563 -5.20265625 31.00203125 -5.7578125 32.2265625 C-6.16773438 33.14179688 -6.57765625 34.05703125 -7 35 C-12.67618534 33.15193966 -12.67618534 33.15193966 -15.34765625 31.8984375 C-19.06500618 30.6392468 -22.53814579 30.63177559 -26.4375 30.625 C-27.54448242 30.58826172 -27.54448242 30.58826172 -28.67382812 30.55078125 C-35.01231358 30.51697599 -38.33443837 32.79139179 -43.1875 36.8125 C-49.0116087 43.84159671 -48.4715037 51.52524694 -48.51171875 60.24609375 C-48.52858537 61.62616046 -48.54673826 63.006212 -48.56611633 64.38624573 C-48.61340792 67.99794775 -48.64335125 71.60958823 -48.66955566 75.22149658 C-48.69946718 78.91536528 -48.74580203 82.60902651 -48.79101562 86.30273438 C-48.87834918 93.53517154 -48.9384706 100.7671133 -49 108 C-61.21 108 -73.42 108 -86 108 C-86 72.69 -86 37.38 -86 1 C-73.79 1 -61.58 1 -49 1 C-49 5.29 -49 9.58 -49 14 C-47.845 12.96875 -46.69 11.9375 -45.5 10.875 C-44.00204855 9.58095818 -42.50202912 8.28930652 -41 7 C-40.38769531 6.45214844 -39.77539062 5.90429688 -39.14453125 5.33984375 C-27.45561568 -4.40507306 -13.72096655 -4.57365552 0 0 Z " fill="#7D7777" transform="translate(808,132)"/>
<path d="M0 0 C12.21 0 24.42 0 37 0 C37 59.4 37 118.8 37 180 C24.79 180 12.58 180 0 180 C0 176.7 0 173.4 0 170 C-0.89460938 170.60328125 -1.78921875 171.2065625 -2.7109375 171.828125 C-3.93197835 172.63589049 -5.1533507 173.44315502 -6.375 174.25 C-6.95894531 174.64574219 -7.54289062 175.04148438 -8.14453125 175.44921875 C-16.88627192 181.18304865 -24.83857851 183.72390717 -35.3125 183.5625 C-36.8269873 183.54606445 -36.8269873 183.54606445 -38.37207031 183.52929688 C-53.3761151 183.09523579 -64.83516399 176.62966751 -75.25 165.875 C-85.52041342 153.59699547 -88.09100787 140.42237584 -88.25 124.8125 C-88.2595874 123.98089355 -88.2691748 123.14928711 -88.27905273 122.29248047 C-88.19858791 107.54839956 -82.47792008 94.66946228 -72.25 84.11328125 C-62.81917172 75.25550677 -52.95150806 70.26398408 -40 69 C-39.20078125 68.91621094 -38.4015625 68.83242187 -37.578125 68.74609375 C-23.62622183 68.02040751 -10.66918557 73.46465155 0 82 C0 54.94 0 27.88 0 0 Z " fill="#7D7777" transform="translate(1320,60)"/>
<path d="M0 0 C0.82628906 0.05671875 1.65257812 0.1134375 2.50390625 0.171875 C11.26811874 1.26903424 22.66985849 5.66985849 29 12 C29.33 9.36 29.66 6.72 30 4 C42.21 4 54.42 4 67 4 C67 39.31 67 74.62 67 111 C55.12 111 43.24 111 31 111 C31 107.37 31 103.74 31 100 C30.05253906 100.76183594 30.05253906 100.76183594 29.0859375 101.5390625 C14.3139119 112.90543379 1.39704553 116.11170295 -17 114 C-29.95382145 111.63529551 -41.31909157 102.35911993 -49 92 C-58.9674452 77.16209862 -59.72737254 59.6174535 -57.53125 42.3046875 C-54.48454119 28.41314612 -45.69624543 16.39501901 -34.08203125 8.30859375 C-23.39701245 1.59286899 -12.6115428 -0.87663173 0 0 Z " fill="#7D7777" transform="translate(1063,129)"/>
<path d="M0 0 C19.37172096 -0.69912978 36.9488639 5.39754996 51.16015625 18.59375 C52.33578125 19.8621875 52.33578125 19.8621875 53.53515625 21.15625 C54.08945312 21.71699219 54.64375 22.27773437 55.21484375 22.85546875 C65.08746881 33.30011286 67.92685836 45.73740475 67.66015625 59.71875 C67.65113281 60.63205078 67.64210938 61.54535156 67.6328125 62.48632812 C67.60952878 64.70992319 67.57683335 66.93293677 67.53515625 69.15625 C66.87515625 69.15625 66.21515625 69.15625 65.53515625 69.15625 C65.49390625 70.22875 65.45265625 71.30125 65.41015625 72.40625 C63.92455091 83.90442833 56.31472313 93.58291795 47.484375 100.5703125 C41.26478662 105.1563334 34.95801683 108.87496524 27.53515625 111.15625 C26.63667969 111.44113281 25.73820312 111.72601563 24.8125 112.01953125 C5.02160602 117.6398255 -14.98881136 115.6796725 -33.27734375 106.40625 C-47.65549131 98.06178936 -55.23021591 86.00060201 -61.46484375 71.15625 C-61.79484375 70.49625 -62.12484375 69.83625 -62.46484375 69.15625 C-62.54955739 67.34283158 -62.57205458 65.52630839 -62.5625 63.7109375 C-62.55927734 62.63457031 -62.55605469 61.55820313 -62.55273438 60.44921875 C-62.54435547 59.32128906 -62.53597656 58.19335938 -62.52734375 57.03125 C-62.52283203 55.89558594 -62.51832031 54.75992188 -62.51367188 53.58984375 C-62.5018599 50.77859362 -62.48538882 47.9674477 -62.46484375 45.15625 C-61.47484375 44.66125 -61.47484375 44.66125 -60.46484375 44.15625 C-59.89008026 42.40217903 -59.38096876 40.62645473 -58.90234375 38.84375 C-54.12997771 23.94119432 -42.47039617 14.1347351 -29.125 6.953125 C-19.7572179 2.17865805 -10.33737959 0.6553014 0 0 Z " fill="#7E7878" transform="translate(331.46484375,128.84375)"/>
<path d="M0 0 C1.51815698 0.00025106 3.03631968 0.00581115 4.55444336 0.01586914 C5.26113159 0.01687622 5.96781982 0.0178833 6.69592285 0.0189209 C9.34539402 0.02416794 11.99484213 0.0381291 14.64428711 0.05102539 C20.56366211 0.07165039 26.48303711 0.09227539 32.58178711 0.11352539 C33.07678711 19.91352539 33.07678711 19.91352539 33.58178711 40.11352539 C44.47178711 40.60852539 44.47178711 40.60852539 55.58178711 41.11352539 C55.58178711 50.35352539 55.58178711 59.59352539 55.58178711 69.11352539 C47.99178711 69.11352539 40.40178711 69.11352539 32.58178711 69.11352539 C32.67919825 74.36090954 32.7822206 79.60758965 32.89916992 84.85449219 C32.93723567 86.63600152 32.97212581 88.41758187 33.00366211 90.19921875 C33.0498037 92.77377549 33.10771171 95.34785268 33.16772461 97.92211914 C33.17927582 98.70687119 33.19082703 99.49162323 33.20272827 100.30015564 C33.3456706 105.76836971 34.22094412 110.81866883 35.58178711 116.11352539 C41.16015391 116.97508505 45.22854924 117.44698805 50.58178711 115.11352539 C53.29872647 121.29114728 55.420099 127.58750295 57.33178711 134.05102539 C57.55439209 134.79666748 57.77699707 135.54230957 58.00634766 136.31054688 C58.88521166 139.33674906 59.58178711 141.94572345 59.58178711 145.11352539 C46.49812016 151.19139905 32.4261571 154.92889996 18.27319336 149.94946289 C8.501079 145.38670288 3.02079132 140.04755185 -1.37524414 130.25024414 C-4.09085494 122.08307009 -4.70204306 114.19778784 -4.61352539 105.63696289 C-4.6106955 104.58570221 -4.6078656 103.53444153 -4.60494995 102.45132446 C-4.59385432 99.13027015 -4.56876995 95.80949666 -4.54321289 92.48852539 C-4.53316936 90.22160223 -4.52404592 87.9546748 -4.51586914 85.68774414 C-4.49394986 80.16289819 -4.45949438 74.63825922 -4.41821289 69.11352539 C-9.36821289 69.11352539 -14.31821289 69.11352539 -19.41821289 69.11352539 C-19.41821289 59.87352539 -19.41821289 50.63352539 -19.41821289 41.11352539 C-14.46821289 41.11352539 -9.51821289 41.11352539 -4.41821289 41.11352539 C-4.42344971 39.90704346 -4.42868652 38.70056152 -4.43408203 37.45751953 C-4.452129 32.99789161 -4.46364378 28.53826693 -4.47314453 24.07861328 C-4.47818545 22.14533954 -4.48501808 20.21206963 -4.49365234 18.27880859 C-4.50572854 15.50625667 -4.51144346 12.73375498 -4.51586914 9.96118164 C-4.52103043 9.09139175 -4.52619171 8.22160187 -4.5315094 7.32545471 C-4.53170474 5.25446725 -4.48029457 3.18358215 -4.41821289 1.11352539 C-3.41821289 0.11352539 -3.41821289 0.11352539 0 0 Z " fill="#7E7878" transform="translate(416.418212890625,91.886474609375)"/>
<path d="M0 0 C-0.87638665 6.82595888 -3.75991594 12.21814387 -6.8125 18.3125 C-7.34681641 19.42173828 -7.88113281 20.53097656 -8.43164062 21.67382812 C-9.21764648 23.25260742 -9.21764648 23.25260742 -10.01953125 24.86328125 C-10.49495361 25.82532471 -10.97037598 26.78736816 -11.46020508 27.77856445 C-13 30 -13 30 -14.98681641 30.90869141 C-17.70980826 31.03219358 -19.60152738 29.87287019 -22.02392578 28.74267578 C-28.58831709 26.27555466 -38.31244665 26.59985805 -44.80859375 29.06640625 C-50.45469521 32.98345585 -52.88913143 38.6673943 -55 45 C-55.11675815 46.94716646 -55.17669925 48.89793477 -55.20532227 50.84838867 C-55.22526749 52.0494072 -55.24521271 53.25042572 -55.26576233 54.48783875 C-55.28247482 55.78478165 -55.29918732 57.08172455 -55.31640625 58.41796875 C-55.33698293 59.7589023 -55.35797959 61.09982946 -55.37937927 62.44075012 C-55.43452627 65.96701889 -55.48396794 69.49334548 -55.53222656 73.01971436 C-55.5824955 76.61931484 -55.63810134 80.21883259 -55.69335938 83.81835938 C-55.80135522 90.87884277 -55.9004352 97.93937248 -56 105 C-68.21 105 -80.42 105 -93 105 C-93 69.69 -93 34.38 -93 -2 C-80.79 -2 -68.58 -2 -56 -2 C-56 2.62 -56 7.24 -56 12 C-55.34 12 -54.68 12 -54 12 C-53.75121094 11.42121094 -53.50242187 10.84242188 -53.24609375 10.24609375 C-48.88219325 2.38012889 -40.18838691 -2.10925129 -32 -5 C-20.56325364 -7.78858939 -10.14386971 -5.53301984 0 0 Z " fill="#7E7878" transform="translate(1238,135)"/>
<path d="M0 0 C7.75435725 4.04514304 12.34103201 8.99613605 15.125 17.3125 C16.36492765 24.88144965 14.94405476 31.69129855 11.125 38.3125 C7.01283634 43.87350888 1.82450104 47.54399817 -4.875 49.3125 C-13.2765838 50.51597011 -19.88788686 49.1635896 -26.875 44.3125 C-32.79329801 38.78017794 -36.03881195 31.27373794 -36.3125 23.1875 C-35.96301515 15.98360267 -33.66389809 10.2151955 -28.72265625 4.921875 C-20.48116083 -2.25676371 -10.18972638 -4.1786441 0 0 Z " fill="#FCFCFC" transform="translate(344.875,162.6875)"/>
<path d="M0 0 C6.26750259 3.94347898 10.46461193 9.31687574 12.328125 16.46484375 C13.37562019 25.15354072 12.49735857 32.27739556 7.328125 39.46484375 C2.78138341 44.56237826 -2.56367225 47.99943896 -9.46484375 48.78125 C-17.59573102 49.10071452 -23.7806061 47.94615168 -29.93359375 42.44140625 C-36.91297128 35.09865 -38.18950488 28.58831814 -37.97265625 18.61328125 C-37.19978921 10.52327042 -32.93839391 6.3236133 -26.98828125 1.12890625 C-19.05738961 -4.56849651 -8.64075999 -3.91621541 0 0 Z " fill="#FDFCFC" transform="translate(1308.671875,163.53515625)"/>
<path d="M0 0 C4.75928029 3.82456075 8.31890222 8.83703459 9.38671875 14.91796875 C10.03757161 22.88824891 10.08897545 30.174116 5.38671875 36.91796875 C0.47668428 42.37119575 -4.93578769 46.32747665 -12.3671875 47.265625 C-20.67298806 47.67932388 -27.18427224 45.86006768 -33.4609375 40.2734375 C-39.65528621 33.53118571 -41.26241891 27.24676299 -41.0234375 18.20703125 C-40.17711414 11.42032396 -37.25229144 6.09833818 -32.23828125 1.48046875 C-22.27531128 -6.03433552 -10.74390677 -6.60318942 0 0 Z " fill="#FDFDFD" transform="translate(665.61328125,165.08203125)"/>
<path d="M0 0 C5.83392604 4.49698465 9.75658082 8.85198493 11 16.3125 C11.62470069 25.61510811 10.5177917 32.04979132 4.71484375 39.484375 C2.09489958 42.27739065 -0.55184942 43.65227935 -4 45.3125 C-4.62390625 45.66828125 -5.2478125 46.0240625 -5.890625 46.390625 C-11.54906017 48.86357074 -18.49582508 47.80154839 -24.1875 45.875 C-30.60638032 42.99827692 -35.50241747 37.91742994 -38.19921875 31.42578125 C-39.88752911 24.86196 -39.75212231 18.01129182 -37.9375 11.5 C-29.1987153 -2.87671032 -15.64102634 -8.79807732 0 0 Z " fill="#FDFDFD" transform="translate(1083,164.6875)"/>
<path d="M0 0 C6.05249743 3.37050452 9.99532539 7.83159164 12.1875 14.44921875 C13.66904946 22.7983673 13.52374235 31.44721686 8.5625 38.5625 C3.65246553 44.015727 -1.76000644 47.9720079 -9.19140625 48.91015625 C-17.54099726 49.32603626 -23.88570984 47.44066371 -30.28515625 41.98828125 C-35.63702199 36.34712547 -37.52769703 29.77106069 -37.9375 22.125 C-37.71852613 15.32728943 -35.32911651 9.75000285 -30.7578125 4.7109375 C-29.05643254 3.17591469 -27.32753136 1.85523025 -25.4375 0.5625 C-24.138125 -0.365625 -24.138125 -0.365625 -22.8125 -1.3125 C-15.00229517 -3.91590161 -7.48328996 -3.35489961 0 0 Z " fill="#FDFDFD" transform="translate(218.4375,163.4375)"/>
</svg>
