<svg width="471" height="169" viewBox="0 0 471 169" fill="none" xmlns="http://www.w3.org/2000/svg">
<path d="M0 20C0 8.9543 8.95431 0 20 0H451C462.046 0 471 8.95431 471 20V149C471 160.046 462.046 169 451 169H20C8.9543 169 0 160.046 0 149V20Z" fill="#0275D8"/>
<path d="M74.1932 98H65.125L76.9034 63.0909H88.1364L99.9148 98H90.8466L82.6477 71.8864H82.375L74.1932 98ZM72.983 84.2614H91.9375V90.6705H72.983V84.2614ZM116.577 98H103.673V63.0909H116.56C120.116 63.0909 123.179 63.7898 125.747 65.1875C128.327 66.5739 130.315 68.5739 131.713 71.1875C133.111 73.7898 133.81 76.9034 133.81 80.5284C133.81 84.1648 133.111 87.2898 131.713 89.9034C130.327 92.517 128.344 94.5227 125.764 95.9205C123.185 97.3068 120.122 98 116.577 98ZM112.111 90.8068H116.253C118.207 90.8068 119.861 90.4773 121.213 89.8182C122.577 89.1477 123.605 88.0625 124.298 86.5625C125.003 85.0511 125.355 83.0398 125.355 80.5284C125.355 78.017 125.003 76.017 124.298 74.5284C123.594 73.0284 122.554 71.9489 121.179 71.2898C119.815 70.6193 118.134 70.2841 116.134 70.2841H112.111V90.8068ZM151.639 98H138.736V63.0909H151.622C155.179 63.0909 158.241 63.7898 160.81 65.1875C163.389 66.5739 165.378 68.5739 166.776 71.1875C168.173 73.7898 168.872 76.9034 168.872 80.5284C168.872 84.1648 168.173 87.2898 166.776 89.9034C165.389 92.517 163.406 94.5227 160.827 95.9205C158.247 97.3068 155.185 98 151.639 98ZM147.173 90.8068H151.315C153.27 90.8068 154.923 90.4773 156.276 89.8182C157.639 89.1477 158.668 88.0625 159.361 86.5625C160.065 85.0511 160.418 83.0398 160.418 80.5284C160.418 78.017 160.065 76.017 159.361 74.5284C158.656 73.0284 157.616 71.9489 156.241 71.2898C154.878 70.6193 153.196 70.2841 151.196 70.2841H147.173V90.8068ZM182.969 69.9432V63.0909H212.474V69.9432H201.889V98H193.571V69.9432H182.969ZM247.95 80.5455C247.95 84.3864 247.212 87.642 245.734 90.3125C244.257 92.983 242.257 95.0114 239.734 96.3977C237.223 97.7841 234.405 98.4773 231.28 98.4773C228.143 98.4773 225.32 97.7784 222.808 96.3807C220.297 94.983 218.303 92.9545 216.825 90.2955C215.359 87.625 214.626 84.375 214.626 80.5455C214.626 76.7045 215.359 73.4489 216.825 70.7784C218.303 68.108 220.297 66.0795 222.808 64.6932C225.32 63.3068 228.143 62.6136 231.28 62.6136C234.405 62.6136 237.223 63.3068 239.734 64.6932C242.257 66.0795 244.257 68.108 245.734 70.7784C247.212 73.4489 247.95 76.7045 247.95 80.5455ZM239.325 80.5455C239.325 78.2727 239.001 76.3523 238.354 74.7841C237.717 73.2159 236.797 72.0284 235.592 71.2216C234.399 70.4148 232.962 70.0114 231.28 70.0114C229.609 70.0114 228.172 70.4148 226.967 71.2216C225.763 72.0284 224.837 73.2159 224.189 74.7841C223.553 76.3523 223.234 78.2727 223.234 80.5455C223.234 82.8182 223.553 84.7386 224.189 86.3068C224.837 87.875 225.763 89.0625 226.967 89.8693C228.172 90.6761 229.609 91.0795 231.28 91.0795C232.962 91.0795 234.399 90.6761 235.592 89.8693C236.797 89.0625 237.717 87.875 238.354 86.3068C239.001 84.7386 239.325 82.8182 239.325 80.5455ZM294.876 75.7386H286.354C286.24 74.8636 286.007 74.0739 285.655 73.3693C285.303 72.6648 284.837 72.0625 284.257 71.5625C283.678 71.0625 282.99 70.6818 282.195 70.4205C281.411 70.1477 280.541 70.0114 279.587 70.0114C277.893 70.0114 276.433 70.4261 275.206 71.2557C273.99 72.0852 273.053 73.2841 272.393 74.8523C271.746 76.4205 271.422 78.3182 271.422 80.5455C271.422 82.8636 271.751 84.8068 272.411 86.375C273.081 87.9318 274.018 89.108 275.223 89.9034C276.439 90.6875 277.876 91.0795 279.536 91.0795C280.467 91.0795 281.314 90.9602 282.075 90.7216C282.848 90.483 283.524 90.1364 284.104 89.6818C284.695 89.2159 285.178 88.6534 285.553 87.9943C285.939 87.3239 286.206 86.5682 286.354 85.7273L294.876 85.7784C294.729 87.3239 294.28 88.8466 293.53 90.3466C292.791 91.8466 291.774 93.2159 290.479 94.4545C289.183 95.6818 287.604 96.6591 285.74 97.3864C283.888 98.1136 281.763 98.4773 279.365 98.4773C276.206 98.4773 273.376 97.7841 270.876 96.3977C268.388 95 266.422 92.9659 264.979 90.2955C263.536 87.625 262.814 84.375 262.814 80.5455C262.814 76.7045 263.547 73.4489 265.013 70.7784C266.479 68.108 268.462 66.0795 270.962 64.6932C273.462 63.3068 276.263 62.6136 279.365 62.6136C281.479 62.6136 283.433 62.9091 285.229 63.5C287.024 64.0795 288.604 64.9318 289.967 66.0568C291.331 67.1705 292.439 68.5398 293.291 70.1648C294.143 71.7898 294.672 73.6477 294.876 75.7386ZM306.365 98H297.297L309.075 63.0909H320.308L332.087 98H323.018L314.82 71.8864H314.547L306.365 98ZM305.155 84.2614H324.109V90.6705H305.155V84.2614ZM335.845 98V63.0909H350.266C352.879 63.0909 355.135 63.5625 357.033 64.5057C358.942 65.4375 360.413 66.7784 361.447 68.5284C362.482 70.267 362.999 72.3295 362.999 74.7159C362.999 77.1364 362.47 79.1932 361.413 80.8864C360.357 82.5682 358.857 83.8523 356.913 84.7386C354.97 85.6136 352.669 86.0511 350.01 86.0511H340.891V79.4034H348.442C349.714 79.4034 350.777 79.2386 351.629 78.9091C352.493 78.5682 353.146 78.0568 353.589 77.375C354.033 76.6818 354.254 75.7955 354.254 74.7159C354.254 73.6364 354.033 72.7443 353.589 72.0398C353.146 71.3239 352.493 70.7898 351.629 70.4375C350.766 70.0739 349.703 69.892 348.442 69.892H344.283V98H335.845ZM355.499 82.0455L364.192 98H354.987L346.464 82.0455H355.499ZM366.484 69.9432V63.0909H395.99V69.9432H385.405V98H377.087V69.9432H366.484Z" fill="white"/>
</svg>
