<svg width="471" height="141" viewBox="0 0 471 141" fill="none" xmlns="http://www.w3.org/2000/svg">
<path d="M0 20C0 8.95431 8.95431 0 20 0H451C462.046 0 471 8.95431 471 20V121C471 132.046 462.046 141 451 141H20C8.9543 141 0 132.046 0 121V20Z" fill="#0275D8"/>
<path d="M74.1932 89.3846H65.125L76.9034 54.4756H88.1364L99.9148 89.3846H90.8466L82.6477 63.271H82.375L74.1932 89.3846ZM72.983 75.646H91.9375V82.0551H72.983V75.646ZM116.577 89.3846H103.673V54.4756H116.56C120.116 54.4756 123.179 55.1744 125.747 56.5721C128.327 57.9585 130.315 59.9585 131.713 62.5721C133.111 65.1744 133.81 68.2881 133.81 71.9131C133.81 75.5494 133.111 78.6744 131.713 81.2881C130.327 83.9017 128.344 85.9074 125.764 87.3051C123.185 88.6915 120.122 89.3846 116.577 89.3846ZM112.111 82.1915H116.253C118.207 82.1915 119.861 81.8619 121.213 81.2028C122.577 80.5324 123.605 79.4471 124.298 77.9471C125.003 76.4358 125.355 74.4244 125.355 71.9131C125.355 69.4017 125.003 67.4017 124.298 65.9131C123.594 64.4131 122.554 63.3335 121.179 62.6744C119.815 62.004 118.134 61.6687 116.134 61.6687H112.111V82.1915ZM151.639 89.3846H138.736V54.4756H151.622C155.179 54.4756 158.241 55.1744 160.81 56.5721C163.389 57.9585 165.378 59.9585 166.776 62.5721C168.173 65.1744 168.872 68.2881 168.872 71.9131C168.872 75.5494 168.173 78.6744 166.776 81.2881C165.389 83.9017 163.406 85.9074 160.827 87.3051C158.247 88.6915 155.185 89.3846 151.639 89.3846ZM147.173 82.1915H151.315C153.27 82.1915 154.923 81.8619 156.276 81.2028C157.639 80.5324 158.668 79.4471 159.361 77.9471C160.065 76.4358 160.418 74.4244 160.418 71.9131C160.418 69.4017 160.065 67.4017 159.361 65.9131C158.656 64.4131 157.616 63.3335 156.241 62.6744C154.878 62.004 153.196 61.6687 151.196 61.6687H147.173V82.1915ZM182.969 61.3278V54.4756H212.474V61.3278H201.889V89.3846H193.571V61.3278H182.969ZM247.95 71.9301C247.95 75.771 247.212 79.0267 245.734 81.6971C244.257 84.3676 242.257 86.396 239.734 87.7824C237.223 89.1687 234.405 89.8619 231.28 89.8619C228.143 89.8619 225.32 89.1631 222.808 87.7653C220.297 86.3676 218.303 84.3392 216.825 81.6801C215.359 79.0096 214.626 75.7596 214.626 71.9301C214.626 68.0892 215.359 64.8335 216.825 62.1631C218.303 59.4926 220.297 57.4642 222.808 56.0778C225.32 54.6915 228.143 53.9983 231.28 53.9983C234.405 53.9983 237.223 54.6915 239.734 56.0778C242.257 57.4642 244.257 59.4926 245.734 62.1631C247.212 64.8335 247.95 68.0892 247.95 71.9301ZM239.325 71.9301C239.325 69.6574 239.001 67.7369 238.354 66.1687C237.717 64.6006 236.797 63.4131 235.592 62.6062C234.399 61.7994 232.962 61.396 231.28 61.396C229.609 61.396 228.172 61.7994 226.967 62.6062C225.763 63.4131 224.837 64.6006 224.189 66.1687C223.553 67.7369 223.234 69.6574 223.234 71.9301C223.234 74.2028 223.553 76.1233 224.189 77.6915C224.837 79.2596 225.763 80.4471 226.967 81.254C228.172 82.0608 229.609 82.4642 231.28 82.4642C232.962 82.4642 234.399 82.0608 235.592 81.254C236.797 80.4471 237.717 79.2596 238.354 77.6915C239.001 76.1233 239.325 74.2028 239.325 71.9301ZM294.876 67.1233H286.354C286.24 66.2483 286.007 65.4585 285.655 64.754C285.303 64.0494 284.837 63.4471 284.257 62.9471C283.678 62.4471 282.99 62.0665 282.195 61.8051C281.411 61.5324 280.541 61.396 279.587 61.396C277.893 61.396 276.433 61.8108 275.206 62.6403C273.99 63.4699 273.053 64.6687 272.393 66.2369C271.746 67.8051 271.422 69.7028 271.422 71.9301C271.422 74.2483 271.751 76.1915 272.411 77.7596C273.081 79.3165 274.018 80.4926 275.223 81.2881C276.439 82.0721 277.876 82.4642 279.536 82.4642C280.467 82.4642 281.314 82.3449 282.075 82.1062C282.848 81.8676 283.524 81.521 284.104 81.0665C284.695 80.6006 285.178 80.0381 285.553 79.379C285.939 78.7085 286.206 77.9528 286.354 77.1119L294.876 77.1631C294.729 78.7085 294.28 80.2312 293.53 81.7312C292.791 83.2312 291.774 84.6006 290.479 85.8392C289.183 87.0665 287.604 88.0437 285.74 88.771C283.888 89.4983 281.763 89.8619 279.365 89.8619C276.206 89.8619 273.376 89.1687 270.876 87.7824C268.388 86.3846 266.422 84.3506 264.979 81.6801C263.536 79.0096 262.814 75.7596 262.814 71.9301C262.814 68.0892 263.547 64.8335 265.013 62.1631C266.479 59.4926 268.462 57.4642 270.962 56.0778C273.462 54.6915 276.263 53.9983 279.365 53.9983C281.479 53.9983 283.433 54.2937 285.229 54.8846C287.024 55.4642 288.604 56.3165 289.967 57.4415C291.331 58.5551 292.439 59.9244 293.291 61.5494C294.143 63.1744 294.672 65.0324 294.876 67.1233ZM306.365 89.3846H297.297L309.075 54.4756H320.308L332.087 89.3846H323.018L314.82 63.271H314.547L306.365 89.3846ZM305.155 75.646H324.109V82.0551H305.155V75.646ZM335.845 89.3846V54.4756H350.266C352.879 54.4756 355.135 54.9471 357.033 55.8903C358.942 56.8221 360.413 58.1631 361.447 59.9131C362.482 61.6517 362.999 63.7142 362.999 66.1006C362.999 68.521 362.47 70.5778 361.413 72.271C360.357 73.9528 358.857 75.2369 356.913 76.1233C354.97 76.9983 352.669 77.4358 350.01 77.4358H340.891V70.7881H348.442C349.714 70.7881 350.777 70.6233 351.629 70.2937C352.493 69.9528 353.146 69.4415 353.589 68.7596C354.033 68.0665 354.254 67.1801 354.254 66.1006C354.254 65.021 354.033 64.129 353.589 63.4244C353.146 62.7085 352.493 62.1744 351.629 61.8221C350.766 61.4585 349.703 61.2767 348.442 61.2767H344.283V89.3846H335.845ZM355.499 73.4301L364.192 89.3846H354.987L346.464 73.4301H355.499ZM366.484 61.3278V54.4756H395.99V61.3278H385.405V89.3846H377.087V61.3278H366.484Z" fill="white"/>
</svg>
