<svg width="574" height="169" viewBox="0 0 574 169" fill="none" xmlns="http://www.w3.org/2000/svg">
<path d="M0 20C0 8.9543 8.95431 0 20 0H554C565.046 0 574 8.95431 574 20V149C574 160.046 565.046 169 554 169H20C8.95431 169 0 160.046 0 149V20Z" fill="#0275D8"/>
<path d="M134.233 95.2606H89.9562L90.9448 100.287H131.487C133.813 100.287 135.537 102.533 135.022 104.892L134.189 108.704C137.012 110.13 138.958 113.139 138.958 116.621C138.958 121.522 135.104 125.487 130.376 125.416C125.871 125.349 122.166 121.547 122.045 116.864C121.978 114.306 122.964 111.988 124.583 110.339H92.9172C94.4846 111.935 95.4583 114.159 95.4583 116.621C95.4583 121.618 91.4515 125.642 86.5967 125.407C82.286 125.199 78.7802 121.577 78.5536 117.096C78.3787 113.635 80.1299 110.585 82.7905 108.993L72.1802 55.0521H61.625C59.6229 55.0521 58 53.3645 58 51.2826V48.7695C58 46.6877 59.6229 45 61.625 45H77.1112C78.8332 45 80.3175 46.2598 80.6626 48.0141L82.047 55.0521H141.374C143.7 55.0521 145.424 57.2983 144.908 59.6571L137.768 92.3265C137.393 94.0427 135.926 95.2606 134.233 95.2606ZM119.625 71.3868H112.375V65.1042C112.375 63.7163 111.293 62.5912 109.958 62.5912H107.542C106.207 62.5912 105.125 63.7163 105.125 65.1042V71.3868H97.875C96.5403 71.3868 95.4583 72.5119 95.4583 73.8998V76.4129C95.4583 77.8008 96.5403 78.9259 97.875 78.9259H105.125V85.2085C105.125 86.5964 106.207 87.7215 107.542 87.7215H109.958C111.293 87.7215 112.375 86.5964 112.375 85.2085V78.9259H119.625C120.96 78.9259 122.042 77.8008 122.042 76.4129V73.8998C122.042 72.5119 120.96 71.3868 119.625 71.3868Z" fill="white"/>
<path d="M206.193 101H197.125L208.903 66.0909H220.136L231.915 101H222.847L214.648 74.8864H214.375L206.193 101ZM204.983 87.2614H223.938V93.6705H204.983V87.2614ZM248.577 101H235.673V66.0909H248.56C252.116 66.0909 255.179 66.7898 257.747 68.1875C260.327 69.5739 262.315 71.5739 263.713 74.1875C265.111 76.7898 265.81 79.9034 265.81 83.5284C265.81 87.1648 265.111 90.2898 263.713 92.9034C262.327 95.517 260.344 97.5227 257.764 98.9205C255.185 100.307 252.122 101 248.577 101ZM244.111 93.8068H248.253C250.207 93.8068 251.861 93.4773 253.213 92.8182C254.577 92.1477 255.605 91.0625 256.298 89.5625C257.003 88.0511 257.355 86.0398 257.355 83.5284C257.355 81.017 257.003 79.017 256.298 77.5284C255.594 76.0284 254.554 74.9489 253.179 74.2898C251.815 73.6193 250.134 73.2841 248.134 73.2841H244.111V93.8068ZM283.639 101H270.736V66.0909H283.622C287.179 66.0909 290.241 66.7898 292.81 68.1875C295.389 69.5739 297.378 71.5739 298.776 74.1875C300.173 76.7898 300.872 79.9034 300.872 83.5284C300.872 87.1648 300.173 90.2898 298.776 92.9034C297.389 95.517 295.406 97.5227 292.827 98.9205C290.247 100.307 287.185 101 283.639 101ZM279.173 93.8068H283.315C285.27 93.8068 286.923 93.4773 288.276 92.8182C289.639 92.1477 290.668 91.0625 291.361 89.5625C292.065 88.0511 292.418 86.0398 292.418 83.5284C292.418 81.017 292.065 79.017 291.361 77.5284C290.656 76.0284 289.616 74.9489 288.241 74.2898C286.878 73.6193 285.196 73.2841 283.196 73.2841H279.173V93.8068ZM314.969 72.9432V66.0909H344.474V72.9432H333.889V101H325.571V72.9432H314.969ZM379.95 83.5455C379.95 87.3864 379.212 90.642 377.734 93.3125C376.257 95.983 374.257 98.0114 371.734 99.3977C369.223 100.784 366.405 101.477 363.28 101.477C360.143 101.477 357.32 100.778 354.808 99.3807C352.297 97.983 350.303 95.9545 348.825 93.2955C347.359 90.625 346.626 87.375 346.626 83.5455C346.626 79.7045 347.359 76.4489 348.825 73.7784C350.303 71.108 352.297 69.0795 354.808 67.6932C357.32 66.3068 360.143 65.6136 363.28 65.6136C366.405 65.6136 369.223 66.3068 371.734 67.6932C374.257 69.0795 376.257 71.108 377.734 73.7784C379.212 76.4489 379.95 79.7045 379.95 83.5455ZM371.325 83.5455C371.325 81.2727 371.001 79.3523 370.354 77.7841C369.717 76.2159 368.797 75.0284 367.592 74.2216C366.399 73.4148 364.962 73.0114 363.28 73.0114C361.609 73.0114 360.172 73.4148 358.967 74.2216C357.763 75.0284 356.837 76.2159 356.189 77.7841C355.553 79.3523 355.234 81.2727 355.234 83.5455C355.234 85.8182 355.553 87.7386 356.189 89.3068C356.837 90.875 357.763 92.0625 358.967 92.8693C360.172 93.6761 361.609 94.0795 363.28 94.0795C364.962 94.0795 366.399 93.6761 367.592 92.8693C368.797 92.0625 369.717 90.875 370.354 89.3068C371.001 87.7386 371.325 85.8182 371.325 83.5455ZM426.876 78.7386H418.354C418.24 77.8636 418.007 77.0739 417.655 76.3693C417.303 75.6648 416.837 75.0625 416.257 74.5625C415.678 74.0625 414.99 73.6818 414.195 73.4205C413.411 73.1477 412.541 73.0114 411.587 73.0114C409.893 73.0114 408.433 73.4261 407.206 74.2557C405.99 75.0852 405.053 76.2841 404.393 77.8523C403.746 79.4205 403.422 81.3182 403.422 83.5455C403.422 85.8636 403.751 87.8068 404.411 89.375C405.081 90.9318 406.018 92.108 407.223 92.9034C408.439 93.6875 409.876 94.0795 411.536 94.0795C412.467 94.0795 413.314 93.9602 414.075 93.7216C414.848 93.483 415.524 93.1364 416.104 92.6818C416.695 92.2159 417.178 91.6534 417.553 90.9943C417.939 90.3239 418.206 89.5682 418.354 88.7273L426.876 88.7784C426.729 90.3239 426.28 91.8466 425.53 93.3466C424.791 94.8466 423.774 96.2159 422.479 97.4545C421.183 98.6818 419.604 99.6591 417.74 100.386C415.888 101.114 413.763 101.477 411.365 101.477C408.206 101.477 405.376 100.784 402.876 99.3977C400.388 98 398.422 95.9659 396.979 93.2955C395.536 90.625 394.814 87.375 394.814 83.5455C394.814 79.7045 395.547 76.4489 397.013 73.7784C398.479 71.108 400.462 69.0795 402.962 67.6932C405.462 66.3068 408.263 65.6136 411.365 65.6136C413.479 65.6136 415.433 65.9091 417.229 66.5C419.024 67.0795 420.604 67.9318 421.967 69.0568C423.331 70.1705 424.439 71.5398 425.291 73.1648C426.143 74.7898 426.672 76.6477 426.876 78.7386ZM438.365 101H429.297L441.075 66.0909H452.308L464.087 101H455.018L446.82 74.8864H446.547L438.365 101ZM437.155 87.2614H456.109V93.6705H437.155V87.2614ZM467.845 101V66.0909H482.266C484.879 66.0909 487.135 66.5625 489.033 67.5057C490.942 68.4375 492.413 69.7784 493.447 71.5284C494.482 73.267 494.999 75.3295 494.999 77.7159C494.999 80.1364 494.47 82.1932 493.413 83.8864C492.357 85.5682 490.857 86.8523 488.913 87.7386C486.97 88.6136 484.669 89.0511 482.01 89.0511H472.891V82.4034H480.442C481.714 82.4034 482.777 82.2386 483.629 81.9091C484.493 81.5682 485.146 81.0568 485.589 80.375C486.033 79.6818 486.254 78.7955 486.254 77.7159C486.254 76.6364 486.033 75.7443 485.589 75.0398C485.146 74.3239 484.493 73.7898 483.629 73.4375C482.766 73.0739 481.703 72.892 480.442 72.892H476.283V101H467.845ZM487.499 85.0455L496.192 101H486.987L478.464 85.0455H487.499ZM498.484 72.9432V66.0909H527.99V72.9432H517.405V101H509.087V72.9432H498.484Z" fill="white"/>
</svg>
