<svg width="471" height="154" viewBox="0 0 471 154" fill="none" xmlns="http://www.w3.org/2000/svg">
<path d="M0 20C0 8.9543 8.95431 0 20 0H451C462.046 0 471 8.95431 471 20V134C471 145.046 462.046 154 451 154H20C8.9543 154 0 145.046 0 134V20Z" fill="#0275D8"/>
<path d="M74.1932 93.3846H65.125L76.9034 58.4756H88.1364L99.9148 93.3846H90.8466L82.6477 67.271H82.375L74.1932 93.3846ZM72.983 79.646H91.9375V86.0551H72.983V79.646ZM116.577 93.3846H103.673V58.4756H116.56C120.116 58.4756 123.179 59.1744 125.747 60.5721C128.327 61.9585 130.315 63.9585 131.713 66.5721C133.111 69.1744 133.81 72.2881 133.81 75.9131C133.81 79.5494 133.111 82.6744 131.713 85.2881C130.327 87.9017 128.344 89.9074 125.764 91.3051C123.185 92.6915 120.122 93.3846 116.577 93.3846ZM112.111 86.1915H116.253C118.207 86.1915 119.861 85.8619 121.213 85.2028C122.577 84.5324 123.605 83.4471 124.298 81.9471C125.003 80.4358 125.355 78.4244 125.355 75.9131C125.355 73.4017 125.003 71.4017 124.298 69.9131C123.594 68.4131 122.554 67.3335 121.179 66.6744C119.815 66.004 118.134 65.6687 116.134 65.6687H112.111V86.1915ZM151.639 93.3846H138.736V58.4756H151.622C155.179 58.4756 158.241 59.1744 160.81 60.5721C163.389 61.9585 165.378 63.9585 166.776 66.5721C168.173 69.1744 168.872 72.2881 168.872 75.9131C168.872 79.5494 168.173 82.6744 166.776 85.2881C165.389 87.9017 163.406 89.9074 160.827 91.3051C158.247 92.6915 155.185 93.3846 151.639 93.3846ZM147.173 86.1915H151.315C153.27 86.1915 154.923 85.8619 156.276 85.2028C157.639 84.5324 158.668 83.4471 159.361 81.9471C160.065 80.4358 160.418 78.4244 160.418 75.9131C160.418 73.4017 160.065 71.4017 159.361 69.9131C158.656 68.4131 157.616 67.3335 156.241 66.6744C154.878 66.004 153.196 65.6687 151.196 65.6687H147.173V86.1915ZM182.969 65.3278V58.4756H212.474V65.3278H201.889V93.3846H193.571V65.3278H182.969ZM247.95 75.9301C247.95 79.771 247.212 83.0267 245.734 85.6971C244.257 88.3676 242.257 90.396 239.734 91.7824C237.223 93.1687 234.405 93.8619 231.28 93.8619C228.143 93.8619 225.32 93.1631 222.808 91.7653C220.297 90.3676 218.303 88.3392 216.825 85.6801C215.359 83.0096 214.626 79.7596 214.626 75.9301C214.626 72.0892 215.359 68.8335 216.825 66.1631C218.303 63.4926 220.297 61.4642 222.808 60.0778C225.32 58.6915 228.143 57.9983 231.28 57.9983C234.405 57.9983 237.223 58.6915 239.734 60.0778C242.257 61.4642 244.257 63.4926 245.734 66.1631C247.212 68.8335 247.95 72.0892 247.95 75.9301ZM239.325 75.9301C239.325 73.6574 239.001 71.7369 238.354 70.1687C237.717 68.6006 236.797 67.4131 235.592 66.6062C234.399 65.7994 232.962 65.396 231.28 65.396C229.609 65.396 228.172 65.7994 226.967 66.6062C225.763 67.4131 224.837 68.6006 224.189 70.1687C223.553 71.7369 223.234 73.6574 223.234 75.9301C223.234 78.2028 223.553 80.1233 224.189 81.6915C224.837 83.2596 225.763 84.4471 226.967 85.254C228.172 86.0608 229.609 86.4642 231.28 86.4642C232.962 86.4642 234.399 86.0608 235.592 85.254C236.797 84.4471 237.717 83.2596 238.354 81.6915C239.001 80.1233 239.325 78.2028 239.325 75.9301ZM294.876 71.1233H286.354C286.24 70.2483 286.007 69.4585 285.655 68.754C285.303 68.0494 284.837 67.4471 284.257 66.9471C283.678 66.4471 282.99 66.0665 282.195 65.8051C281.411 65.5324 280.541 65.396 279.587 65.396C277.893 65.396 276.433 65.8108 275.206 66.6403C273.99 67.4699 273.053 68.6687 272.393 70.2369C271.746 71.8051 271.422 73.7028 271.422 75.9301C271.422 78.2483 271.751 80.1915 272.411 81.7596C273.081 83.3165 274.018 84.4926 275.223 85.2881C276.439 86.0721 277.876 86.4642 279.536 86.4642C280.467 86.4642 281.314 86.3449 282.075 86.1062C282.848 85.8676 283.524 85.521 284.104 85.0665C284.695 84.6006 285.178 84.0381 285.553 83.379C285.939 82.7085 286.206 81.9528 286.354 81.1119L294.876 81.1631C294.729 82.7085 294.28 84.2312 293.53 85.7312C292.791 87.2312 291.774 88.6006 290.479 89.8392C289.183 91.0665 287.604 92.0437 285.74 92.771C283.888 93.4983 281.763 93.8619 279.365 93.8619C276.206 93.8619 273.376 93.1687 270.876 91.7824C268.388 90.3846 266.422 88.3506 264.979 85.6801C263.536 83.0096 262.814 79.7596 262.814 75.9301C262.814 72.0892 263.547 68.8335 265.013 66.1631C266.479 63.4926 268.462 61.4642 270.962 60.0778C273.462 58.6915 276.263 57.9983 279.365 57.9983C281.479 57.9983 283.433 58.2937 285.229 58.8846C287.024 59.4642 288.604 60.3165 289.967 61.4415C291.331 62.5551 292.439 63.9244 293.291 65.5494C294.143 67.1744 294.672 69.0324 294.876 71.1233ZM306.365 93.3846H297.297L309.075 58.4756H320.308L332.087 93.3846H323.018L314.82 67.271H314.547L306.365 93.3846ZM305.155 79.646H324.109V86.0551H305.155V79.646ZM335.845 93.3846V58.4756H350.266C352.879 58.4756 355.135 58.9471 357.033 59.8903C358.942 60.8221 360.413 62.1631 361.447 63.9131C362.482 65.6517 362.999 67.7142 362.999 70.1006C362.999 72.521 362.47 74.5778 361.413 76.271C360.357 77.9528 358.857 79.2369 356.913 80.1233C354.97 80.9983 352.669 81.4358 350.01 81.4358H340.891V74.7881H348.442C349.714 74.7881 350.777 74.6233 351.629 74.2937C352.493 73.9528 353.146 73.4415 353.589 72.7596C354.033 72.0665 354.254 71.1801 354.254 70.1006C354.254 69.021 354.033 68.129 353.589 67.4244C353.146 66.7085 352.493 66.1744 351.629 65.8221C350.766 65.4585 349.703 65.2767 348.442 65.2767H344.283V93.3846H335.845ZM355.499 77.4301L364.192 93.3846H354.987L346.464 77.4301H355.499ZM366.484 65.3278V58.4756H395.99V65.3278H385.405V93.3846H377.087V65.3278H366.484Z" fill="white"/>
</svg>
