<svg width="374" height="374" viewBox="0 0 374 374" fill="none" xmlns="http://www.w3.org/2000/svg">
<path d="M295.913 171.319H111.201L167.736 103.414C170.38 100.234 171.652 96.1333 171.272 92.015C170.892 87.8967 168.892 84.098 165.712 81.4544C162.531 78.8108 158.431 77.539 154.312 77.9187C150.194 78.2984 146.395 80.2985 143.752 83.4791L65.8797 176.925C65.3558 177.669 64.8873 178.449 64.478 179.262C64.478 180.04 64.478 180.507 63.3878 181.286C62.6819 183.072 62.3123 184.973 62.2976 186.893C62.3123 188.813 62.6819 190.714 63.3878 192.5C63.3878 193.278 63.3878 193.746 64.478 194.524C64.8873 195.336 65.3558 196.117 65.8797 196.861L143.752 290.307C145.216 292.065 147.05 293.479 149.122 294.448C151.195 295.417 153.456 295.917 155.744 295.914C159.383 295.921 162.909 294.653 165.712 292.332C167.289 291.024 168.592 289.418 169.548 287.606C170.503 285.794 171.092 283.812 171.28 281.772C171.468 279.732 171.252 277.675 170.644 275.719C170.036 273.762 169.048 271.945 167.736 270.372L111.201 202.467H295.913C300.044 202.467 304.005 200.826 306.926 197.906C309.847 194.985 311.488 191.024 311.488 186.893C311.488 182.762 309.847 178.801 306.926 175.88C304.005 172.959 300.044 171.319 295.913 171.319Z" fill="#231F20"/>
</svg>
