<svg width="286" height="296" viewBox="0 0 286 296" fill="none" xmlns="http://www.w3.org/2000/svg">
<path d="M166.833 98.6666V73.9999C166.833 67.4579 164.322 61.1838 159.853 56.5579C155.383 51.9321 149.321 49.3333 143 49.3333H59.5833C53.2623 49.3333 47.2002 51.9321 42.7306 56.5579C38.261 61.1838 35.75 67.4579 35.75 73.9999V222C35.75 228.542 38.261 234.816 42.7306 239.442C47.2002 244.068 53.2623 246.667 59.5833 246.667H143C149.321 246.667 155.383 244.068 159.853 239.442C164.322 234.816 166.833 228.542 166.833 222V197.333" stroke="black" stroke-width="31.1488" stroke-linecap="round" stroke-linejoin="round"/>
<path d="M83.4167 148H250.25M250.25 148L214.5 111M250.25 148L214.5 185" stroke="black" stroke-width="31.1488" stroke-linecap="round" stroke-linejoin="round"/>
</svg>
